HIERARCHY
ROOT Hips
{
	OFFSET 0.000000 35.082581 0.000000
	CHANNELS 6 Xposition Yposition Zposition Xrotation Yrotation Zrotation 
	JOINT Spine
	{
		OFFSET 0.000000 6.876099 0.125700
		CHANNELS 3 Xrotation Yrotation Zrotation
		JOINT Spine1
		{
			OFFSET 0.000000 5.730043 0.104720
			CHANNELS 3 Xrotation Yrotation Zrotation
			JOINT Spine1_split
			{
				OFFSET 0.000000 5.730043 0.104720
				CHANNELS 3 Xrotation Yrotation Zrotation
				JOINT Spine2
				{
					OFFSET 0.000000 5.730043 0.104720
					CHANNELS 3 Xrotation Yrotation Zrotation
					JOINT Neck
					{
						OFFSET 0.000000 10.314075 0.188496
						CHANNELS 3 Xrotation Yrotation Zrotation
						JOINT Head
						{
							OFFSET 0.000000 7.643700 -2.377400
							CHANNELS 3 Xrotation Yrotation Zrotation
							JOINT HeadTop_End
							{
								OFFSET 0.000000 43.788605 -13.619600
								CHANNELS 3 Xrotation Yrotation Zrotation
								End Site
								{
									OFFSET 0.000000 0.000000 0.000000
								}
							}
						}
					}
					JOINT LeftShoulder
					{
						OFFSET 2.196100 4.412489 0.087492
						CHANNELS 3 Xrotation Yrotation Zrotation
						JOINT LeftShoulder_split
						{
							OFFSET 2.196100 4.412489 0.087492
							CHANNELS 3 Xrotation Yrotation Zrotation
							JOINT LeftArm
							{
								OFFSET 8.771219 -2.981674 -0.026999
								CHANNELS 3 Xrotation Yrotation Zrotation
								JOINT LeftForeArm
								{
									OFFSET 8.512804 0.000000 -0.000000
									CHANNELS 3 Xrotation Yrotation Zrotation
									JOINT LeftHand
									{
										OFFSET 18.484802 0.000000 -0.000000
										CHANNELS 3 Xrotation Yrotation Zrotation
										JOINT LeftHandThumb1
										{
											OFFSET 2.499420 -1.158070 2.653252
											CHANNELS 3 Xrotation Yrotation Zrotation
											JOINT LeftHandThumb2
											{
												OFFSET 2.370079 -1.368366 1.368366
												CHANNELS 3 Xrotation Yrotation Zrotation
												JOINT LeftHandThumb3
												{
													OFFSET 2.676727 -1.545410 1.545409
													CHANNELS 3 Xrotation Yrotation Zrotation
													JOINT LeftHandThumb4
													{
														OFFSET 1.692226 -0.977005 0.977007
														CHANNELS 3 Xrotation Yrotation Zrotation
														End Site
														{
															OFFSET 0.000000 0.000000 0.000000
														}
													}
												}
											}
										}
										JOINT LeftHandIndex1
										{
											OFFSET 7.924831 -0.457527 2.345128
											CHANNELS 3 Xrotation Yrotation Zrotation
											JOINT LeftHandIndex2
											{
												OFFSET 3.643303 0.000000 0.000000
												CHANNELS 3 Xrotation Yrotation Zrotation
												JOINT LeftHandIndex3
												{
													OFFSET 3.810799 0.000000 0.000000
													CHANNELS 3 Xrotation Yrotation Zrotation
													JOINT LeftHandIndex4
													{
														OFFSET 2.403702 0.000000 0.000000
														CHANNELS 3 Xrotation Yrotation Zrotation
														End Site
														{
															OFFSET 0.000000 0.000000 0.000000
														}
													}
												}
											}
										}
										JOINT LeftHandMiddle1
										{
											OFFSET 8.563995 0.000000 -0.000000
											CHANNELS 3 Xrotation Yrotation Zrotation
											JOINT LeftHandMiddle2
											{
												OFFSET 3.861618 0.000000 0.000000
												CHANNELS 3 Xrotation Yrotation Zrotation
												JOINT LeftHandMiddle3
												{
													OFFSET 3.701603 0.000000 0.000000
													CHANNELS 3 Xrotation Yrotation Zrotation
													JOINT LeftHandMiddle4
													{
														OFFSET 2.322544 0.000000 0.000000
														CHANNELS 3 Xrotation Yrotation Zrotation
														End Site
														{
															OFFSET 0.000000 0.000000 0.000000
														}
													}
												}
											}
										}
										JOINT LeftHandRing1
										{
											OFFSET 8.426460 -0.424637 -3.286992
											CHANNELS 3 Xrotation Yrotation Zrotation
											JOINT LeftHandRing2
											{
												OFFSET 3.126408 0.000000 0.000000
												CHANNELS 3 Xrotation Yrotation Zrotation
												JOINT LeftHandRing3
												{
													OFFSET 3.085026 0.000000 0.000000
													CHANNELS 3 Xrotation Yrotation Zrotation
													JOINT LeftHandRing4
													{
														OFFSET 1.644005 0.000000 0.000000
														CHANNELS 3 Xrotation Yrotation Zrotation
														End Site
														{
															OFFSET 0.000000 0.000000 0.000000
														}
													}
												}
											}
										}
									}
								}
							}
						}
					}
					JOINT RightShoulder
					{
						OFFSET -2.196100 4.412496 0.070690
						CHANNELS 3 Xrotation Yrotation Zrotation
						JOINT RightShoulder_split
						{
							OFFSET -2.196100 4.412496 0.070690
							CHANNELS 3 Xrotation Yrotation Zrotation
							JOINT RightArm
							{
								OFFSET -8.771282 -2.981682 -0.094208
								CHANNELS 3 Xrotation Yrotation Zrotation
								JOINT RightForeArm
								{
									OFFSET -8.494598 0.000000 0.000000
									CHANNELS 3 Xrotation Yrotation Zrotation
									JOINT RightHand
									{
										OFFSET -18.483803 0.000000 0.000001
										CHANNELS 3 Xrotation Yrotation Zrotation
										JOINT RightHandThumb1
										{
											OFFSET -2.527351 -1.008072 2.575253
											CHANNELS 3 Xrotation Yrotation Zrotation
											JOINT RightHandThumb2
											{
												OFFSET -2.321518 -1.340328 1.340329
												CHANNELS 3 Xrotation Yrotation Zrotation
												JOINT RightHandThumb3
												{
													OFFSET -2.657753 -1.534454 1.534455
													CHANNELS 3 Xrotation Yrotation Zrotation
													JOINT RightHandThumb4
													{
														OFFSET -1.807510 -1.043568 1.043567
														CHANNELS 3 Xrotation Yrotation Zrotation
														End Site
														{
															OFFSET 0.000000 0.000000 0.000000
														}
													}
												}
											}
										}
										JOINT RightHandIndex1
										{
											OFFSET -8.811420 0.015533 2.887987
											CHANNELS 3 Xrotation Yrotation Zrotation
											JOINT RightHandIndex2
											{
												OFFSET -3.537502 0.000000 0.000000
												CHANNELS 3 Xrotation Yrotation Zrotation
												JOINT RightHandIndex3
												{
													OFFSET -3.356201 0.000000 0.000000
													CHANNELS 3 Xrotation Yrotation Zrotation
													JOINT RightHandIndex4
													{
														OFFSET -1.933098 0.000000 0.000000
														CHANNELS 3 Xrotation Yrotation Zrotation
														End Site
														{
															OFFSET 0.000000 0.000000 0.000000
														}
													}
												}
											}
										}
										JOINT RightHandMiddle1
										{
											OFFSET -8.178135 0.000000 0.000000
											CHANNELS 3 Xrotation Yrotation Zrotation
											JOINT RightHandMiddle2
											{
												OFFSET -3.901302 0.000000 0.000000
												CHANNELS 3 Xrotation Yrotation Zrotation
												JOINT RightHandMiddle3
												{
													OFFSET -3.909599 0.000000 0.000000
													CHANNELS 3 Xrotation Yrotation Zrotation
													JOINT RightHandMiddle4
													{
														OFFSET -2.376003 0.000000 0.000000
														CHANNELS 3 Xrotation Yrotation Zrotation
														End Site
														{
															OFFSET 0.000000 0.000000 0.000000
														}
													}
												}
											}
										}
										JOINT RightHandRing1
										{
											OFFSET -7.559013 0.014137 -2.865403
											CHANNELS 3 Xrotation Yrotation Zrotation
											JOINT RightHandRing2
											{
												OFFSET -3.449306 0.000000 0.000000
												CHANNELS 3 Xrotation Yrotation Zrotation
												JOINT RightHandRing3
												{
													OFFSET -3.362106 0.000000 0.000000
													CHANNELS 3 Xrotation Yrotation Zrotation
													JOINT RightHandRing4
													{
														OFFSET -2.076401 0.000000 0.000000
														CHANNELS 3 Xrotation Yrotation Zrotation
														End Site
														{
															OFFSET 0.000000 0.000000 0.000000
														}
													}
												}
											}
										}
									}
								}
							}
						}
					}
				}
			}
		}
	}
	JOINT LeftUpLeg
	{
		OFFSET 10.205400 -3.823500 0.155100
		CHANNELS 3 Xrotation Yrotation Zrotation
		JOINT LeftLeg
		{
			OFFSET 0.708757 -12.982077 0.567790
			CHANNELS 3 Xrotation Yrotation Zrotation
			JOINT LeftFoot
			{
				OFFSET -0.708756 -10.717838 -2.184338
				CHANNELS 3 Xrotation Yrotation Zrotation
				JOINT LeftToeBase
				{
					OFFSET 0.108149 -7.191104 7.560241
					CHANNELS 3 Xrotation Yrotation Zrotation
					JOINT LeftToe_End
					{
						OFFSET 0.070230 0.081724 4.490308
						CHANNELS 3 Xrotation Yrotation Zrotation
						End Site
						{
							OFFSET 0.000000 0.000000 0.000000
						}
					}
				}
			}
		}
	}
	JOINT RightUpLeg
	{
		OFFSET -10.205400 -3.823500 0.005500
		CHANNELS 3 Xrotation Yrotation Zrotation
		JOINT RightLeg
		{
			OFFSET -0.708756 -12.982134 0.610632
			CHANNELS 3 Xrotation Yrotation Zrotation
			JOINT RightFoot
			{
				OFFSET 0.708754 -10.717769 -1.945823
				CHANNELS 3 Xrotation Yrotation Zrotation
				JOINT RightToeBase
				{
					OFFSET -0.108140 -7.191069 7.372968
					CHANNELS 3 Xrotation Yrotation Zrotation
					JOINT RightToe_End
					{
						OFFSET -0.070227 0.081735 4.479403
						CHANNELS 3 Xrotation Yrotation Zrotation
						End Site
						{
							OFFSET 0.000000 0.000000 0.000000
						}
					}
				}
			}
		}
	}
}
MOTION
Frames: 6
Frame Time: 0.016667
0.043155 24.800243 1.117007 -4.316788 -74.827058 -3.289728 2.952966 -0.371627 -1.572592 5.893828 -0.904749 -3.151097 0.000000 0.000000 0.000000 5.893815 -0.904585 -3.151113 -2.451537 24.309794 7.456973 0.154238 27.772029 -8.534005 0.000001 -0.000002 0.000000 0.279784 -7.010243 -19.556623 0.000000 0.000000 0.000000 -39.504079 -20.309100 -2.427276 -5.614213 -32.071584 -2.800582 4.686484 -29.138010 18.780606 18.604756 9.201146 -20.335708 9.366537 23.517113 3.907232 15.631118 30.652209 0.950004 -0.000004 0.000000 0.000001 5.062908 7.259537 -60.393509 0.009021 -4.396037 -76.234747 -0.014933 1.943559 -28.702787 -0.000002 -0.000001 -0.000002 -0.063980 4.758038 -60.986841 -0.080433 -4.896935 -84.974356 -0.077678 1.572473 -47.862697 -0.000003 -0.000002 -0.000002 -0.034410 -0.056989 -61.362297 -0.169938 -1.351953 -91.625383 -0.058891 1.209369 -28.345002 0.000003 -0.000003 -0.000001 0.636249 13.855914 9.110365 0.000000 0.000000 0.000000 35.455273 67.114409 -18.850905 0.649706 83.885303 -11.766975 -31.174063 -5.150287 -0.072282 15.959780 -4.187794 29.032201 -14.791953 -41.235505 -16.515527 1.538923 -36.186506 -16.491859 0.000002 0.000003 -0.000000 5.358205 -4.863572 67.585057 0.006270 4.394807 68.693425 -0.015223 -1.944179 51.003775 -0.000001 -0.000001 -0.000001 -0.076810 -4.752195 70.834908 -0.076426 4.897895 82.216353 -0.094643 -1.559165 59.800328 -0.000002 -0.000002 0.000001 -1.164525 -6.475316 73.357495 -0.172065 1.351236 92.834381 -0.068394 -1.195405 42.966275 0.000000 0.000000 -0.000002 -37.487124 6.274501 64.041541 43.677496 -11.097870 -10.154051 4.338723 1.488701 -34.196893 -0.031744 -0.002756 -0.038435 -0.000000 -0.000002 0.000000 -37.297850 10.266359 -41.604765 66.734056 20.367976 -5.685613 -23.170013 -11.625655 33.857835 -0.005266 -0.000128 -0.000159 -0.000000 0.000000 0.000000 
0.043080 24.800488 1.116805 -4.316797 -74.827058 -3.289693 2.952967 -0.371602 -1.572637 5.893826 -0.904756 -3.151095 0.000000 0.000000 0.000000 5.893816 -0.904601 -3.151108 -2.481199 24.333334 7.459439 0.160613 27.801722 -8.536961 0.000000 0.000001 0.000000 0.279778 -7.010229 -19.556606 0.000000 0.000000 0.000000 -39.570021 -20.279800 -2.378963 -5.525904 -32.234186 -2.805769 4.608311 -29.479995 18.629595 18.604754 9.201144 -20.335708 9.366536 23.517115 3.907234 15.631117 30.652202 0.950005 -0.000001 -0.000002 -0.000000 5.062917 7.259537 -60.393509 0.009020 -4.396040 -76.234747 -0.014936 1.943556 -28.702784 -0.000002 0.000003 0.000002 -0.063978 4.758036 -60.986841 -0.080431 -4.896940 -84.974356 -0.077675 1.572472 -47.862697 0.000001 -0.000002 0.000001 -0.034411 -0.056991 -61.362303 -0.169940 -1.351954 -91.625383 -0.058888 1.209370 -28.345002 -0.000000 0.000001 0.000002 0.636241 13.855914 9.110382 0.000000 0.000000 0.000000 35.361050 66.921592 -19.125276 1.039586 84.331082 -12.064237 -30.137110 -3.581577 -2.922862 15.959785 -4.187795 29.032204 -14.791956 -41.235502 -16.515531 1.538928 -36.186506 -16.491850 0.000000 -0.000001 -0.000001 5.358206 -4.863572 67.585057 0.006269 4.394810 68.693425 -0.015225 -1.944179 51.003772 0.000007 -0.000001 -0.000001 -0.076809 -4.752196 70.834908 -0.076428 4.897896 82.216360 -0.094639 -1.559164 59.800328 -0.000000 0.000001 0.000002 -1.164520 -6.475319 73.357495 -0.172068 1.351242 92.834381 -0.068396 -1.195408 42.966275 -0.000001 0.000000 -0.000002 -37.289206 6.165936 63.933631 43.708781 -10.913079 -10.136228 4.298179 1.510527 -34.303788 -0.031771 -0.002737 -0.038479 0.000000 -0.000002 0.000000 -37.273346 10.287213 -41.590873 66.730798 20.337921 -5.687029 -23.174548 -11.634361 33.877960 -0.005253 -0.000111 -0.000159 -0.000000 -0.000000 -0.000000 
0.060274 24.874451 1.116599 -5.318244 -75.260994 -4.297936 2.900387 -0.331068 -1.526824 5.790269 -0.823352 -3.057951 0.000000 0.000000 0.000000 5.790278 -0.823155 -3.058012 -2.569102 24.400574 7.466809 0.176402 27.894277 -8.544352 0.000001 -0.000001 -0.000000 0.268775 -7.020043 -19.607421 0.000000 0.000000 0.000000 -39.486884 -20.023362 -2.512436 -5.275109 -32.657129 -2.924874 4.324729 -29.568647 18.253877 18.604759 9.201153 -20.335710 9.366533 23.517108 3.907232 15.631120 30.652209 0.950009 -0.000002 0.000002 -0.000000 5.062913 7.259544 -60.393509 0.009016 -4.396038 -76.234747 -0.014932 1.943561 -28.702784 -0.000002 -0.000000 -0.000002 -0.063980 4.758043 -60.986834 -0.080429 -4.896940 -84.974356 -0.077674 1.572475 -47.862697 -0.000002 -0.000001 -0.000000 -0.034409 -0.056989 -61.362297 -0.169934 -1.351956 -91.625383 -0.058891 1.209365 -28.344996 -0.000001 0.000005 -0.000001 0.634748 13.830889 9.149997 0.000000 0.000000 0.000000 35.145073 66.734814 -18.516989 1.797511 83.923996 -12.613779 -28.913799 -1.718602 -3.791594 15.959779 -4.187795 29.032201 -14.791956 -41.235505 -16.515529 1.538935 -36.186510 -16.491852 0.000001 -0.000001 0.000003 5.358204 -4.863573 67.585057 0.006273 4.394806 68.693432 -0.015221 -1.944180 51.003772 -0.000000 -0.000000 -0.000000 -0.076810 -4.752196 70.834908 -0.076429 4.897899 82.216360 -0.094638 -1.559166 59.800328 0.000000 0.000000 0.000003 -1.164526 -6.475316 73.357495 -0.172066 1.351240 92.834381 -0.068396 -1.195405 42.966275 0.000002 -0.000000 0.000002 -36.389100 6.651755 63.917020 43.290774 -10.435499 -10.043018 4.226540 1.573866 -34.606397 -0.031588 -0.002740 -0.038236 0.000000 -0.000001 0.000000 -37.432821 10.276633 -41.259653 66.265573 20.441979 -5.673340 -22.620849 -11.376552 33.724780 -0.005269 -0.000117 -0.000151 -0.000000 0.000000 -0.000000 
0.083938 24.962555 1.113101 -6.760090 -75.860138 -5.749617 2.820891 -0.274159 -1.472643 5.633336 -0.706284 -2.949008 0.000000 0.000000 0.000000 5.633329 -0.706353 -2.949006 -2.701126 24.509336 7.478628 0.204686 28.042592 -8.562599 -0.000000 -0.000001 0.000000 0.235402 -7.052431 -19.747802 0.000000 0.000000 0.000000 -38.990903 -19.413546 -3.073297 -4.884508 -33.341357 -3.229823 3.787392 -29.109826 17.675556 18.604756 9.201147 -20.335705 9.366536 23.517111 3.907230 15.631117 30.652205 0.950007 -0.000000 -0.000005 -0.000002 5.062914 7.259540 -60.393509 0.009014 -4.396034 -76.234747 -0.014933 1.943558 -28.702787 0.000001 -0.000002 -0.000001 -0.063978 4.758033 -60.986834 -0.080426 -4.896938 -84.974356 -0.077678 1.572469 -47.862697 0.000000 0.000000 -0.000003 -0.034410 -0.056986 -61.362297 -0.169934 -1.351952 -91.625383 -0.058892 1.209368 -28.345002 0.000002 -0.000000 -0.000000 0.630165 13.759763 9.264990 0.000000 0.000000 0.000000 34.557889 66.432052 -17.348018 2.853458 83.375347 -13.338865 -27.579614 0.446932 -4.373119 15.959787 -4.187786 29.032207 -14.791956 -41.235498 -16.515532 1.538929 -36.186506 -16.491854 0.000006 -0.000000 0.000001 5.358207 -4.863572 67.585063 0.006273 4.394807 68.693425 -0.015223 -1.944183 51.003779 -0.000005 0.000000 -0.000000 -0.076805 -4.752197 70.834908 -0.076428 4.897901 82.216360 -0.094636 -1.559167 59.800328 -0.000003 -0.000000 0.000003 -1.164518 -6.475316 73.357495 -0.172066 1.351242 92.834381 -0.068392 -1.195405 42.966271 0.000000 -0.000000 0.000002 -35.245371 7.341170 63.960166 42.730589 -9.863089 -9.942294 4.149290 1.651813 -34.989888 -0.031286 -0.002740 -0.037879 0.000000 -0.000001 -0.000000 -37.675853 10.315575 -40.794971 65.705313 20.587013 -5.656098 -21.897078 -11.041995 33.522165 -0.005279 -0.000090 -0.000181 0.000000 0.000000 0.000000 
0.112707 25.063431 1.105862 -8.643619 -76.558306 -7.644925 2.735417 -0.208440 -1.410059 5.463876 -0.576409 -2.823615 0.000000 0.000000 0.000000 5.463879 -0.576610 -2.823585 -2.878976 24.654558 7.494873 0.243574 28.241678 -8.588793 0.000000 0.000001 0.000000 0.178883 -7.112272 -19.959759 0.000000 0.000000 0.000000 -38.090032 -18.526663 -4.022175 -4.376994 -34.383664 -3.671997 3.181890 -28.539802 16.950667 18.604757 9.201150 -20.335708 9.366531 23.517110 3.907228 15.631113 30.652209 0.950004 -0.000001 0.000003 -0.000003 5.062913 7.259538 -60.393509 0.009014 -4.396039 -76.234747 -0.014932 1.943568 -28.702787 -0.000001 0.000003 0.000001 -0.063980 4.758039 -60.986841 -0.080426 -4.896937 -84.974356 -0.077677 1.572479 -47.862697 -0.000002 0.000001 0.000002 -0.034412 -0.056986 -61.362297 -0.169938 -1.351953 -91.625383 -0.058889 1.209365 -28.345005 -0.000000 -0.000002 0.000003 0.618036 13.645846 9.451072 0.000000 0.000000 0.000000 33.426621 66.007740 -15.519168 3.993709 82.618856 -14.044138 -26.148303 2.831877 -4.678526 15.959779 -4.187798 29.032201 -14.791956 -41.235502 -16.515525 1.538929 -36.186510 -16.491854 -0.000000 -0.000004 0.000001 5.358206 -4.863572 67.585057 0.006267 4.394811 68.693425 -0.015217 -1.944180 51.003772 0.000000 -0.000001 -0.000001 -0.076809 -4.752197 70.834908 -0.076426 4.897894 82.216367 -0.094636 -1.559163 59.800321 -0.000004 0.000000 0.000002 -1.164524 -6.475318 73.357495 -0.172067 1.351235 92.834381 -0.068394 -1.195406 42.966275 -0.000002 -0.000000 -0.000001 -33.926397 8.193657 64.025196 42.022056 -9.207327 -9.841649 4.106463 1.727136 -35.419537 -0.031213 -0.002757 -0.037784 0.000000 -0.000001 -0.000000 -37.944218 10.377695 -40.228783 65.056056 20.743214 -5.634881 -21.052004 -10.659110 33.292476 -0.005270 -0.000074 -0.000150 0.000000 0.000000 -0.000000 
0.145228 25.175896 1.095321 -10.958165 -77.288918 -9.972110 2.664239 -0.147582 -1.338736 5.322961 -0.456888 -2.681129 0.000000 0.000000 0.000000 5.322961 -0.456661 -2.681141 -3.093956 24.832821 7.515475 0.298560 28.486243 -8.626042 0.000000 -0.000000 -0.000000 0.098141 -7.204259 -20.225679 0.000000 0.000000 0.000000 -36.784581 -17.450464 -5.309886 -3.771962 -35.878451 -4.211574 2.519283 -27.865445 16.096418 18.604752 9.201146 -20.335712 9.366530 23.517108 3.907228 15.631115 30.652199 0.950007 -0.000002 -0.000000 0.000002 5.062914 7.259540 -60.393516 0.009016 -4.396037 -76.234747 -0.014934 1.943563 -28.702787 -0.000001 0.000002 -0.000000 -0.063979 4.758037 -60.986848 -0.080426 -4.896937 -84.974356 -0.077677 1.572477 -47.862701 -0.000001 -0.000001 -0.000000 -0.034411 -0.056986 -61.362297 -0.169938 -1.351953 -91.625383 -0.058888 1.209362 -28.345002 -0.000001 0.000004 0.000001 0.602135 13.494635 9.701621 0.000000 0.000000 0.000000 31.635066 65.437037 -12.990370 5.033724 81.600489 -14.562879 -24.623524 5.453276 -4.921281 15.959785 -4.187797 29.032207 -14.791953 -41.235508 -16.515525 1.538929 -36.186513 -16.491861 0.000001 0.000002 -0.000004 5.358207 -4.863572 67.585063 0.006272 4.394811 68.693425 -0.015223 -1.944182 51.003782 -0.000003 -0.000000 0.000000 -0.076810 -4.752198 70.834908 -0.076428 4.897901 82.216360 -0.094637 -1.559166 59.800321 0.000000 -0.000000 0.000002 -1.164522 -6.475316 73.357495 -0.172069 1.351242 92.834381 -0.068397 -1.195406 42.966271 0.000000 -0.000001 -0.000001 -32.500994 9.163953 64.073096 41.170335 -8.482187 -9.740840 4.125465 1.785372 -35.862311 -0.030730 -0.002736 -0.037221 -0.000000 -0.000006 0.000000 -38.177711 10.439574 -39.596294 64.320602 20.880262 -5.609826 -20.133794 -10.255033 33.060342 -0.005266 -0.000109 -0.000144 0.000000 -0.000000 -0.000000 
